<svg xmlns="http://www.w3.org/2000/svg" width="109.995" height="32.591" viewBox="0 0 109.995 32.591"><defs><style>.a{fill:#fff;}</style></defs><g transform="translate(-276.571 -1185.032)"><g transform="translate(276.571 1185.032)"><path class="a" d="M567.534,1016.979h-92.47c-.337,0-.67,0-1.006,0-.282,0-.561.006-.845.01a13.65,13.65,0,0,0-1.842.144,6.706,6.706,0,0,0-1.747.51,5.968,5.968,0,0,0-1.489.96,5.182,5.182,0,0,0-1.083,1.322,4.952,4.952,0,0,0-.574,1.55,9.4,9.4,0,0,0-.165,1.632c-.009.25-.009.5-.014.75v18.832c.005.254.005.5.014.751a9.4,9.4,0,0,0,.165,1.632,4.948,4.948,0,0,0,.574,1.551,5.14,5.14,0,0,0,1.083,1.315,5.805,5.805,0,0,0,1.489.96,6.706,6.706,0,0,0,1.747.513,13.811,13.811,0,0,0,1.842.144c.284.006.563.009.845.009.336,0,.669,0,1.006,0h92.47c.332,0,.667,0,1,0,.281,0,.567,0,.848-.009a13.639,13.639,0,0,0,1.839-.144,6.816,6.816,0,0,0,1.753-.513,5.833,5.833,0,0,0,1.488-.96,5.318,5.318,0,0,0,1.085-1.315,4.935,4.935,0,0,0,.569-1.551,10.026,10.026,0,0,0,.172-1.632c0-.253,0-.5,0-.751.008-.3.008-.59.008-.891v-17.052c0-.3,0-.6-.008-.889,0-.25,0-.5,0-.75a10.026,10.026,0,0,0-.172-1.632,4.939,4.939,0,0,0-.569-1.55,5.362,5.362,0,0,0-1.085-1.322,6,6,0,0,0-1.488-.96,6.816,6.816,0,0,0-1.753-.51,13.482,13.482,0,0,0-1.839-.144c-.281,0-.567-.009-.848-.01-.33,0-.665,0-1,0Z" transform="translate(-466.3 -1016.979)"/><path d="M474.066,1048.861c-.28,0-.553,0-.831-.009a13.136,13.136,0,0,1-1.718-.132,5.919,5.919,0,0,1-1.522-.447,5,5,0,0,1-1.285-.828,4.427,4.427,0,0,1-.938-1.138,4.3,4.3,0,0,1-.5-1.35,8.964,8.964,0,0,1-.153-1.527c-.006-.172-.013-.744-.013-.744v-18.821s.008-.563.013-.729a8.941,8.941,0,0,1,.152-1.525,4.349,4.349,0,0,1,.5-1.354,4.43,4.43,0,0,1,.933-1.139,5.165,5.165,0,0,1,1.289-.834,5.861,5.861,0,0,1,1.521-.443,12.821,12.821,0,0,1,1.723-.134l.83-.01H568.53l.839.01a12.758,12.758,0,0,1,1.709.132,5.952,5.952,0,0,1,1.535.447,5.1,5.1,0,0,1,1.279.827,4.574,4.574,0,0,1,.941,1.144,4.365,4.365,0,0,1,.493,1.344,9.472,9.472,0,0,1,.159,1.537c0,.231,0,.479,0,.725.008.306.008.6.008.89V1041.8c0,.3,0,.585-.008.876,0,.266,0,.507,0,.758a9.2,9.2,0,0,1-.157,1.509,4.324,4.324,0,0,1-.5,1.361,4.524,4.524,0,0,1-.932,1.129,5.029,5.029,0,0,1-1.287.834,5.929,5.929,0,0,1-1.533.448,12.982,12.982,0,0,1-1.718.132c-.269.006-.551.009-.825.009l-1,0-93.472,0Z" transform="translate(-466.304 -1016.982)"/><path class="a" d="M493.073,1033.576a4.032,4.032,0,0,1,1.919-3.383,4.129,4.129,0,0,0-3.252-1.758c-1.368-.143-2.695.819-3.392.819s-1.784-.8-2.94-.78a4.33,4.33,0,0,0-3.644,2.222c-1.576,2.729-.4,6.738,1.109,8.943.756,1.081,1.638,2.287,2.793,2.244,1.13-.048,1.552-.721,2.917-.721s1.747.721,2.925.694c1.213-.02,1.977-1.085,2.706-2.175a8.941,8.941,0,0,0,1.238-2.519,3.893,3.893,0,0,1-2.378-3.584Z" transform="translate(-466.373 -1017.036)"/><path class="a" d="M490.883,1026.964a3.972,3.972,0,0,0,.907-2.844,4.035,4.035,0,0,0-2.613,1.352,3.777,3.777,0,0,0-.932,2.738,3.341,3.341,0,0,0,2.638-1.247Z" transform="translate(-466.409 -1017.015)"/><path class="a" d="M504,1037.9h3.057l-1.506-4.439h-.043L504,1037.9Zm3.457,1.262H503.6l-.925,2.734h-1.634l3.653-10.118h1.7l3.653,10.118h-1.662l-.925-2.734Z" transform="translate(-466.472 -1017.052)"/><path class="a" d="M516.426,1038.225c0-1.494-.771-2.476-1.949-2.476-1.157,0-1.935,1-1.935,2.476s.778,2.482,1.935,2.482c1.178,0,1.949-.974,1.949-2.482Zm1.556,0c0,2.293-1.227,3.765-3.078,3.765a2.5,2.5,0,0,1-2.321-1.291h-.035v3.654h-1.515v-9.817H512.5v1.227h.028a2.617,2.617,0,0,1,2.349-1.3c1.872,0,3.106,1.481,3.106,3.766Z" transform="translate(-466.522 -1017.066)"/><path class="a" d="M524.586,1038.225c0-1.494-.772-2.476-1.949-2.476-1.157,0-1.935,1-1.935,2.476s.778,2.482,1.935,2.482c1.177,0,1.949-.974,1.949-2.482Zm1.556,0c0,2.293-1.227,3.765-3.079,3.765a2.5,2.5,0,0,1-2.32-1.291h-.036v3.654h-1.513v-9.817h1.466v1.227h.028a2.616,2.616,0,0,1,2.348-1.3c1.873,0,3.107,1.481,3.107,3.766Z" transform="translate(-466.562 -1017.066)"/><path class="a" d="M531.562,1039.08c.112,1,1.087,1.663,2.419,1.663,1.276,0,2.194-.659,2.194-1.564,0-.785-.553-1.255-1.865-1.577l-1.312-.316c-1.858-.449-2.72-1.317-2.72-2.727,0-1.745,1.521-2.944,3.682-2.944,2.138,0,3.6,1.2,3.653,2.944h-1.528c-.091-1.01-.926-1.619-2.146-1.619s-2.054.617-2.054,1.515c0,.714.532,1.135,1.837,1.458l1.114.274c2.077.492,2.938,1.325,2.938,2.805,0,1.893-1.508,3.079-3.906,3.079-2.244,0-3.759-1.158-3.857-2.988Z" transform="translate(-466.616 -1017.052)"/><path class="a" d="M541.084,1032.783v1.745h1.4v1.2h-1.4v4.067c0,.632.282.926.9.926a4.89,4.89,0,0,0,.5-.035v1.191a4.11,4.11,0,0,1-.841.071c-1.494,0-2.076-.561-2.076-1.992v-4.228h-1.073v-1.2h1.073v-1.745Z" transform="translate(-466.658 -1017.057)"/><path class="a" d="M548.779,1038.225c0-1.592-.729-2.531-1.956-2.531s-1.956.946-1.956,2.531.729,2.531,1.956,2.531,1.956-.932,1.956-2.531Zm-5.455,0c0-2.321,1.366-3.779,3.5-3.779s3.5,1.459,3.5,3.779-1.354,3.779-3.5,3.779-3.5-1.452-3.5-3.779Z" transform="translate(-466.682 -1017.066)"/><path class="a" d="M551.611,1034.536h1.445v1.256h.035a1.759,1.759,0,0,1,1.774-1.333,2.332,2.332,0,0,1,.518.057v1.417a2.1,2.1,0,0,0-.68-.092,1.525,1.525,0,0,0-1.578,1.7v4.375h-1.514v-7.376Z" transform="translate(-466.723 -1017.066)"/><path class="a" d="M557.266,1037.545h3.688a1.773,1.773,0,0,0-1.809-1.872,1.868,1.868,0,0,0-1.879,1.872Zm5.118,2.2a2.96,2.96,0,0,1-3.176,2.258c-2.145,0-3.478-1.438-3.478-3.744s1.339-3.814,3.414-3.814c2.042,0,3.324,1.4,3.324,3.639v.519h-5.21v.092a1.922,1.922,0,0,0,1.985,2.089,1.67,1.67,0,0,0,1.7-1.038Z" transform="translate(-466.744 -1017.066)"/><path class="a" d="M502.814,1028.3h.917a1.749,1.749,0,0,0,0-3.487h-.917v3.487Zm1-4.174a2.435,2.435,0,0,1,0,4.862h-1.756v-4.862Z" transform="translate(-466.477 -1017.015)"/><path class="a" d="M509.7,1027.159c0-.795-.358-1.261-.985-1.261s-.983.466-.983,1.261.354,1.263.983,1.263.985-.465.985-1.263Zm-2.716,0a1.738,1.738,0,1,1,1.731,1.906,1.686,1.686,0,0,1-1.731-1.906Z" transform="translate(-466.502 -1017.02)"/><path class="a" d="M515.06,1029h-.751l-.758-2.7h-.057l-.755,2.7h-.744l-1.011-3.669h.734l.657,2.8h.054l.754-2.8h.695l.754,2.8h.057l.654-2.8h.724L515.06,1029Z" transform="translate(-466.522 -1017.02)"/><path class="a" d="M516.948,1025.327h.7v.583h.055a1.1,1.1,0,0,1,1.094-.654,1.193,1.193,0,0,1,1.27,1.364V1029h-.723V1026.8c0-.59-.257-.883-.792-.883a.841.841,0,0,0-.876.929V1029h-.724v-3.669Z" transform="translate(-466.551 -1017.02)"/><path class="a" d="M521.239,1023.888h.724v5.1h-.724v-5.1Z" transform="translate(-466.573 -1017.013)"/><path class="a" d="M525.693,1027.159c0-.795-.357-1.261-.984-1.261s-.983.466-.983,1.261.353,1.263.983,1.263.984-.465.984-1.263Zm-2.715,0a1.738,1.738,0,1,1,1.731,1.906,1.686,1.686,0,0,1-1.731-1.906Z" transform="translate(-466.581 -1017.02)"/><path class="a" d="M529.58,1027.644v-.306l-.9.058c-.505.034-.734.2-.734.529s.287.521.68.521a.865.865,0,0,0,.95-.8Zm-2.358.313c0-.66.492-1.041,1.364-1.094l.994-.058v-.316c0-.387-.256-.606-.751-.606-.4,0-.683.148-.764.407h-.7c.075-.63.668-1.034,1.5-1.034.919,0,1.439.458,1.439,1.233V1029h-.7v-.516h-.057a1.235,1.235,0,0,1-1.1.576,1.108,1.108,0,0,1-1.223-1.1Z" transform="translate(-466.602 -1017.02)"/><path class="a" d="M532.021,1027.153c0,.778.366,1.247.98,1.247s.987-.476.987-1.244-.381-1.246-.987-1.246-.98.471-.98,1.243Zm-.748,0c0-1.159.6-1.894,1.523-1.894a1.208,1.208,0,0,1,1.124.644h.055v-2.015h.723v5.1h-.694v-.579h-.057a1.275,1.275,0,0,1-1.152.64c-.933,0-1.523-.734-1.523-1.9Z" transform="translate(-466.622 -1017.013)"/><path class="a" d="M540.442,1027.159c0-.795-.357-1.261-.984-1.261s-.983.466-.983,1.261.353,1.263.983,1.263.984-.465.984-1.263Zm-2.716,0a1.739,1.739,0,1,1,1.731,1.906,1.686,1.686,0,0,1-1.731-1.906Z" transform="translate(-466.654 -1017.02)"/><path class="a" d="M542.181,1025.327h.7v.583h.055a1.1,1.1,0,0,1,1.095-.654,1.193,1.193,0,0,1,1.27,1.364V1029h-.723V1026.8c0-.59-.257-.883-.792-.883a.841.841,0,0,0-.876.929V1029h-.724v-3.669Z" transform="translate(-466.676 -1017.02)"/><path class="a" d="M549.417,1024.409v.93h.8v.61h-.8v1.887c0,.384.158.552.519.552a2.413,2.413,0,0,0,.276-.017v.6a2.365,2.365,0,0,1-.394.038c-.805,0-1.125-.283-1.125-.991v-2.072h-.583v-.61h.583v-.93Z" transform="translate(-466.706 -1017.016)"/><path class="a" d="M551.217,1023.888h.717v2.022h.058a1.128,1.128,0,0,1,1.118-.658,1.209,1.209,0,0,1,1.264,1.368v2.368h-.724v-2.19c0-.586-.273-.883-.785-.883a.857.857,0,0,0-.923.93v2.142h-.724v-5.1Z" transform="translate(-466.721 -1017.013)"/><path class="a" d="M556.069,1026.822h1.854a.885.885,0,0,0-.9-.95.939.939,0,0,0-.95.95Zm2.547,1.183a1.49,1.49,0,0,1-1.59,1.06,1.666,1.666,0,0,1-1.695-1.893,1.692,1.692,0,0,1,1.692-1.916c1.021,0,1.637.7,1.637,1.85v.253h-2.591v.04a.971.971,0,0,0,.977,1.052.881.881,0,0,0,.874-.444Z" transform="translate(-466.742 -1017.02)"/></g></g></svg>