<svg xmlns="http://www.w3.org/2000/svg" width="137.935" height="46.781" viewBox="0 0 137.935 46.781"><defs><style>.a{fill:#fff;}.b{fill:#e6e7e8;}</style></defs><g transform="translate(-1353.98 -1124.815)"><path class="a" d="M1353.98,1130.163a4.769,4.769,0,1,1,4.769,4.768A4.769,4.769,0,0,1,1353.98,1130.163Z" transform="translate(0 -0.399)"/><path class="b" d="M1358.777,1164.288s4.578,1.379,6.613,4.233l11.792,16.531v13.77l-14.812-19.343Z" transform="translate(-3.309 -27.225)"/><circle class="a" cx="4.769" cy="4.769" r="4.769" transform="translate(1373.338 1125.181) rotate(-2.199)"/><path class="a" d="M1418.126,1175.918v22.662h8.808v-25.245s-.021-9.4-8.808-9.4v11.981Z" transform="translate(-44.243 -26.983)"/><path class="a" d="M1355.154,1198.313h8.808v-25.245s-.021-9.4-8.808-9.4Z" transform="translate(-0.81 -26.799)"/><path class="b" d="M1506.58,1204.456h-11.521v-20.667h11.521v2.135h-9.118v6.658h8.567v2.12h-8.567v7.605h9.118Z" transform="translate(-97.306 -40.676)"/><path class="b" d="M1563.1,1204.456h-2.742l-11.295-17.345h-.113q.226,3.054.226,5.6v11.747h-2.219v-20.667h2.714l11.267,17.275h.113q-.028-.382-.127-2.453t-.07-2.961v-11.86h2.248Z" transform="translate(-133.099 -40.676)"/><path class="a" d="M1620.284,1204.456h-3.35v-20.667H1628.6v2.855h-8.312v6.461h7.789v2.87h-7.789Z" transform="translate(-181.367 -40.676)"/><path class="a" d="M1666.6,1204.456v-20.667h3.379v20.667Z" transform="translate(-215.62 -40.676)"/><path class="a" d="M1695.071,1204.456v-20.667h3.379v17.77h8.75v2.9Z" transform="translate(-235.26 -40.676)"/><path class="a" d="M1752.4,1204.268l-2.064-5.74h-7.9l-2.022,5.74h-3.562l7.732-20.752h3.676l7.733,20.752Zm-2.955-8.651-1.936-5.626q-.212-.566-.587-1.781t-.516-1.781a31.658,31.658,0,0,1-1.117,3.8l-1.866,5.386Z" transform="translate(-264.078 -40.488)"/></g></svg>