<svg xmlns="http://www.w3.org/2000/svg" width="21.938" height="21.938" viewBox="0 0 21.938 21.938"><defs><style>.a{fill:#24bcc4;}.b{fill:#fff;}</style></defs><g transform="translate(0 0)"><path class="a" d="M10.969,0A10.969,10.969,0,1,1,0,10.969,10.969,10.969,0,0,1,10.969,0Z"/><path class="b" d="M108.514,68.51H106.79a3.026,3.026,0,0,0-3.187,3.27v1.508H101.87a.27.27,0,0,0-.27.271v2.186a.27.27,0,0,0,.27.27H103.6v5.514a.27.27,0,0,0,.27.27h2.262a.27.27,0,0,0,.271-.27V76.015h2.025a.271.271,0,0,0,.272-.27V73.556a.272.272,0,0,0-.272-.272h-2.026V72.007c0-.614.148-.927.946-.927h1.161a.272.272,0,0,0,.27-.271V68.78a.271.271,0,0,0-.27-.27Z" transform="translate(-94.223 -63.588)"/></g></svg>