<svg xmlns="http://www.w3.org/2000/svg" xmlns:xlink="http://www.w3.org/1999/xlink" width="109.995" height="32.591" viewBox="0 0 109.995 32.591"><defs><style>.a,.b,.i{fill:#fff;}.b{stroke:#fff;stroke-miterlimit:10;stroke-width:0.2px;}.c{fill:url(#a);}.d{fill:url(#b);}.e{fill:url(#c);}.f{fill:url(#d);}.g{opacity:0.2;}.g,.h,.i{isolation:isolate;}.h{opacity:0.12;}.i{opacity:0.25;}</style><linearGradient id="a" x1="0.915" y1="-190.618" x2="-0.383" y2="-191.288" gradientUnits="objectBoundingBox"><stop offset="0" stop-color="#4896d1"/><stop offset="0.007" stop-color="#4998d2"/><stop offset="0.26" stop-color="#41b8ea"/><stop offset="0.512" stop-color="#3fc6f1"/><stop offset="0.76" stop-color="#55c8e8"/><stop offset="1" stop-color="#5ac8e7"/></linearGradient><linearGradient id="b" x1="1.076" y1="-560.993" x2="-1.305" y2="-560.993" gradientUnits="objectBoundingBox"><stop offset="0" stop-color="#fddf00"/><stop offset="0.409" stop-color="#fdbc11"/><stop offset="0.775" stop-color="#f9a31a"/><stop offset="1" stop-color="#f89b1c"/></linearGradient><linearGradient id="c" x1="0.862" y1="-373.642" x2="-0.501" y2="-375.411" gradientUnits="objectBoundingBox"><stop offset="0" stop-color="#ee3f49"/><stop offset="1" stop-color="#c11e63"/></linearGradient><linearGradient id="d" x1="-0.188" y1="-370.902" x2="0.421" y2="-371.692" gradientUnits="objectBoundingBox"><stop offset="0" stop-color="#319f71"/><stop offset="0.068" stop-color="#2ba670"/><stop offset="0.476" stop-color="#4ab870"/><stop offset="0.801" stop-color="#5dbc6a"/><stop offset="1" stop-color="#66bd68"/></linearGradient></defs><g transform="translate(-389.009 -1185.032)"><g transform="translate(389.009 1185.032)"><rect width="109.994" height="32.591" rx="4.094" transform="translate(0 0)"/><path class="a" d="M685.22,1017.631a3.426,3.426,0,0,1,3.422,3.422V1045.5a3.426,3.426,0,0,1-3.422,3.423H583.373a3.427,3.427,0,0,1-3.422-3.423v-24.443a3.426,3.426,0,0,1,3.422-3.422H685.22m0-.652H583.373a4.087,4.087,0,0,0-4.074,4.074V1045.5a4.087,4.087,0,0,0,4.074,4.075H685.22a4.086,4.086,0,0,0,4.074-4.075v-24.443a4.086,4.086,0,0,0-4.074-4.074Z" transform="translate(-579.299 -1016.979)"/><g transform="translate(33.693 5.594)"><path class="b" d="M618.1,1025.353a2.207,2.207,0,0,1-.607,1.632,2.371,2.371,0,0,1-1.8.724,2.554,2.554,0,1,1,0-5.108,2.527,2.527,0,0,1,1,.2,2.024,2.024,0,0,1,.764.546l-.43.43a1.652,1.652,0,0,0-1.338-.58,1.953,1.953,0,1,0,1.365,3.359,1.534,1.534,0,0,0,.41-.99H615.7v-.587h2.369A2.092,2.092,0,0,1,618.1,1025.353Z" transform="translate(-613.16 -1022.601)"/><path class="b" d="M621.887,1023.312h-2.226v1.549h2.008v.588h-2.008V1027h2.226v.6h-2.854v-4.889h2.854Z" transform="translate(-613.189 -1022.602)"/><path class="b" d="M624.553,1027.6h-.628v-4.288h-1.366v-.6h3.36v.6h-1.366Z" transform="translate(-613.206 -1022.602)"/><path class="b" d="M628.379,1027.6v-4.889h.627v4.889Z" transform="translate(-613.235 -1022.602)"/><path class="b" d="M631.8,1027.6h-.629v-4.288h-1.365v-.6h3.359v.6H631.8Z" transform="translate(-613.242 -1022.602)"/><path class="b" d="M639.551,1026.967a2.537,2.537,0,0,1-3.584,0,2.64,2.64,0,0,1,0-3.625,2.529,2.529,0,0,1,3.581,0,2.633,2.633,0,0,1,0,3.622Zm-3.12-.409a1.88,1.88,0,0,0,2.656,0,2.085,2.085,0,0,0,0-2.807,1.88,1.88,0,0,0-2.656,0,2.087,2.087,0,0,0,0,2.807Z" transform="translate(-613.269 -1022.601)"/><path class="b" d="M641.183,1027.6v-4.889h.764l2.376,3.8h.027l-.027-.942v-2.861h.629v4.889H644.3l-2.486-3.987h-.027l.027.942v3.045Z" transform="translate(-613.299 -1022.602)"/></g><path class="a" d="M634.981,1034.771a3.465,3.465,0,1,0,3.479,3.466A3.416,3.416,0,0,0,634.981,1034.771Zm0,5.565a2.105,2.105,0,1,1,1.956-2.1A2,2,0,0,1,634.981,1040.336Zm-7.588-5.565a3.465,3.465,0,1,0,3.479,3.466A3.416,3.416,0,0,0,627.393,1034.771Zm0,5.565a2.105,2.105,0,1,1,1.956-2.1A2,2,0,0,1,627.393,1040.336Zm-9.027-4.5v1.47h3.518a3.072,3.072,0,0,1-.8,1.851,3.6,3.6,0,0,1-2.717,1.077,3.912,3.912,0,0,1,0-7.823,3.747,3.747,0,0,1,2.652,1.05l1.037-1.037a5.13,5.13,0,0,0-3.689-1.484,5.382,5.382,0,1,0,0,10.763,4.917,4.917,0,0,0,3.754-1.51,4.858,4.858,0,0,0,1.274-3.439,4.773,4.773,0,0,0-.079-.918Zm36.916,1.141a3.221,3.221,0,0,0-2.966-2.2,3.294,3.294,0,0,0-3.269,3.466,3.391,3.391,0,0,0,3.44,3.465,3.448,3.448,0,0,0,2.888-1.535l-1.182-.787a1.977,1.977,0,0,1-1.706.957,1.763,1.763,0,0,1-1.681-1.05l4.634-1.917Zm-4.725,1.155a1.9,1.9,0,0,1,1.812-2.021,1.342,1.342,0,0,1,1.287.735Zm-3.767,3.36h1.523v-10.185h-1.523Zm-2.494-5.946h-.053a2.4,2.4,0,0,0-1.825-.774,3.468,3.468,0,0,0,0,6.93,2.362,2.362,0,0,0,1.825-.787h.053v.5c0,1.326-.708,2.035-1.851,2.035a1.919,1.919,0,0,1-1.746-1.234l-1.325.551a3.3,3.3,0,0,0,3.072,2.048c1.785,0,3.295-1.05,3.295-3.61v-6.222H644.3Zm-1.746,4.791a2.108,2.108,0,0,1,0-4.2,2.117,2.117,0,0,1,0,4.2Zm19.865-9.03h-3.643v10.185h1.52v-3.859h2.122a3.168,3.168,0,1,0,0-6.327Zm.04,4.909h-2.162v-3.491h2.162a1.746,1.746,0,1,1,0,3.491Zm9.4-1.463a2.856,2.856,0,0,0-2.713,1.559l1.35.564a1.438,1.438,0,0,1,1.389-.747,1.463,1.463,0,0,1,1.6,1.31v.1a3.361,3.361,0,0,0-1.585-.393c-1.455,0-2.935.8-2.935,2.293a2.353,2.353,0,0,0,2.529,2.241,2.145,2.145,0,0,0,1.939-1h.052v.786h1.468v-3.9A2.794,2.794,0,0,0,671.849,1034.752Zm-.183,5.582c-.5,0-1.192-.249-1.192-.865,0-.786.865-1.088,1.611-1.088a2.7,2.7,0,0,1,1.389.341A1.842,1.842,0,0,1,671.666,1040.334Zm8.623-5.359-1.743,4.416h-.053l-1.808-4.416h-1.638l2.713,6.172-1.546,3.433H677.8l4.18-9.605Zm-13.695,6.516h1.52v-10.185h-1.52Z" transform="translate(-579.466 -1017.048)"/><g transform="translate(8.126 5.818)"><path class="c" d="M587.842,1023.152a1.632,1.632,0,0,0-.377,1.144v18.019a1.633,1.633,0,0,0,.377,1.145l.061.059L598,1033.425v-.238L587.9,1023.092Z" transform="translate(-587.465 -1022.827)"/><path class="d" d="M601.414,1036.824l-3.365-3.366v-.238l3.365-3.365.077.043,3.986,2.266a1.237,1.237,0,0,1,0,2.352l-3.986,2.266Z" transform="translate(-587.518 -1022.861)"/><path class="e" d="M601.44,1036.8,598,1033.357l-10.154,10.154a1.326,1.326,0,0,0,1.694.05l11.9-6.763" transform="translate(-587.467 -1022.878)"/><path class="f" d="M601.44,1029.863l-11.9-6.763a1.326,1.326,0,0,0-1.694.051L598,1033.3Z" transform="translate(-587.467 -1022.826)"/><g transform="translate(0 13.844)"><path class="g" d="M601.364,1036.739l-11.826,6.719a1.357,1.357,0,0,1-1.633.009h0l-.061.061h0l.061.059h0a1.357,1.357,0,0,0,1.633-.009l11.9-6.763Z" transform="translate(-587.467 -1036.739)"/><path class="h" d="M587.842,1043.437a1.635,1.635,0,0,1-.377-1.145v.119a1.631,1.631,0,0,0,.377,1.144l.061-.061Z" transform="translate(-587.465 -1036.767)"/></g><path class="h" d="M605.494,1034.414l-4.063,2.308.077.076,3.986-2.265a1.43,1.43,0,0,0,.854-1.176h0A1.514,1.514,0,0,1,605.494,1034.414Z" transform="translate(-587.534 -1022.878)"/><path class="i" d="M589.536,1023.219l15.889,9.028a1.517,1.517,0,0,1,.854,1.058h0a1.428,1.428,0,0,0-.854-1.177l-15.889-9.027c-1.139-.648-2.071-.109-2.071,1.194v.12C587.465,1023.11,588.4,1022.572,589.536,1023.219Z" transform="translate(-587.465 -1022.826)"/></g></g></g></svg>