<svg xmlns="http://www.w3.org/2000/svg" width="20.181" height="20.181" viewBox="0 0 20.181 20.181"><defs><style>.a{fill:#24bcc4;}</style></defs><path class="a" d="M14.169,0H6.012A6.019,6.019,0,0,0,0,6.012v8.157a6.019,6.019,0,0,0,6.012,6.012h8.157a6.019,6.019,0,0,0,6.012-6.012V6.012A6.019,6.019,0,0,0,14.169,0Zm3.982,14.169a3.982,3.982,0,0,1-3.982,3.982H6.012A3.982,3.982,0,0,1,2.03,14.169V6.012A3.982,3.982,0,0,1,6.012,2.03h8.157a3.982,3.982,0,0,1,3.982,3.982v8.157Z"/><path class="a" d="M138.219,133a5.219,5.219,0,1,0,5.219,5.219A5.225,5.225,0,0,0,138.219,133Zm0,8.409a3.189,3.189,0,1,1,3.189-3.189A3.189,3.189,0,0,1,138.219,141.409Z" transform="translate(-128.129 -128.129)"/><ellipse class="a" cx="1.251" cy="1.251" rx="1.251" ry="1.251" transform="translate(14.069 3.659)"/></svg>