<svg xmlns="http://www.w3.org/2000/svg" width="19.036" height="19.102" viewBox="0 0 19.036 19.102"><defs><style>.a{fill:#27d7e0;}</style></defs><path class="a" d="M159.823,272h-7.367a.187.187,0,0,0-.187.191c.022.864.081,1.688.17,2.468a.186.186,0,0,0,.231.16,14.154,14.154,0,0,1,6.939,0,.186.186,0,0,0,.231-.16c.089-.78.147-1.605.17-2.468A.187.187,0,0,0,159.823,272Z" transform="translate(-146.621 -261.852)"/><path class="a" d="M159.84,164.436a.186.186,0,0,0-.231-.16,14.154,14.154,0,0,1-6.939,0,.186.186,0,0,0-.231.16c-.089.78-.147,1.6-.17,2.468a.186.186,0,0,0,.187.191h7.367a.187.187,0,0,0,.187-.191C159.987,166.041,159.928,165.216,159.84,164.436Z" transform="translate(-146.621 -158.141)"/><path class="a" d="M169.864,4.72A14.908,14.908,0,0,0,168.426.282.186.186,0,0,0,168.3.19a9.667,9.667,0,0,0-3.811,0,.186.186,0,0,0-.126.092,14.908,14.908,0,0,0-1.438,4.438.186.186,0,0,0,.134.212,12.809,12.809,0,0,0,3.336.44,12.807,12.807,0,0,0,3.336-.44A.186.186,0,0,0,169.864,4.72Z" transform="translate(-156.877 0)"/><path class="a" d="M355.614,22.586a.187.187,0,0,0-.25.238l0,.008a18.6,18.6,0,0,1,.879,3.175.187.187,0,0,0,.254.137,12.813,12.813,0,0,0,2.094-1.1.187.187,0,0,0,.036-.284q-.114-.122-.232-.241A9.547,9.547,0,0,0,355.614,22.586Z" transform="translate(-342.126 -21.726)"/><path class="a" d="M386.34,117.846h4.081a.187.187,0,0,0,.186-.2,9.457,9.457,0,0,0-1.534-4.447.187.187,0,0,0-.26-.053,13.979,13.979,0,0,1-2.263,1.212q-.244.1-.492.2a.187.187,0,0,0-.12.2c.117.936.19,1.913.215,2.913A.186.186,0,0,0,386.34,117.846Z" transform="translate(-371.572 -108.892)"/><path class="a" d="M162.925,368.652a14.908,14.908,0,0,0,1.438,4.438.186.186,0,0,0,.126.092,9.667,9.667,0,0,0,3.811,0,.186.186,0,0,0,.126-.092,14.909,14.909,0,0,0,1.438-4.438.186.186,0,0,0-.134-.212,12.872,12.872,0,0,0-6.671,0A.186.186,0,0,0,162.925,368.652Z" transform="translate(-156.877 -354.271)"/><path class="a" d="M4.938,275.491q.244-.1.492-.2a.187.187,0,0,0,.12-.2c-.117-.936-.19-1.913-.215-2.913A.186.186,0,0,0,5.148,272H1.067a.187.187,0,0,0-.186.2,9.458,9.458,0,0,0,1.534,4.447.187.187,0,0,0,.26.053A13.977,13.977,0,0,1,4.938,275.491Z" transform="translate(-0.881 -261.853)"/><path class="a" d="M358.6,394.32a12.812,12.812,0,0,0-2.094-1.1.187.187,0,0,0-.254.137,18.593,18.593,0,0,1-.879,3.175l0,.008a.187.187,0,0,0,.25.238,9.547,9.547,0,0,0,2.784-1.938q.119-.119.232-.241A.187.187,0,0,0,358.6,394.32Z" transform="translate(-342.127 -378.54)"/><path class="a" d="M386.154,272.181c-.025,1-.1,1.977-.215,2.913a.187.187,0,0,0,.12.2q.247.094.492.2a13.988,13.988,0,0,1,2.263,1.212.187.187,0,0,0,.26-.053,9.457,9.457,0,0,0,1.534-4.447.187.187,0,0,0-.186-.2H386.34A.187.187,0,0,0,386.154,272.181Z" transform="translate(-371.572 -261.851)"/><path class="a" d="M67.507,25.048a12.812,12.812,0,0,0,2.094,1.1.187.187,0,0,0,.254-.137,18.6,18.6,0,0,1,.879-3.175l0-.008a.187.187,0,0,0-.25-.238A9.55,9.55,0,0,0,67.7,24.523q-.119.119-.232.241A.187.187,0,0,0,67.507,25.048Z" transform="translate(-64.938 -21.726)"/><path class="a" d="M5.33,117.846a29.449,29.449,0,0,1,.219-3.1.187.187,0,0,0-.12-.2q-.247-.094-.492-.2a13.985,13.985,0,0,1-2.263-1.212.187.187,0,0,0-.26.053,9.458,9.458,0,0,0-1.534,4.447.187.187,0,0,0,.186.2Z" transform="translate(-0.881 -108.892)"/><path class="a" d="M70.487,396.782a.187.187,0,0,0,.25-.238l0-.008a18.6,18.6,0,0,1-.879-3.175.187.187,0,0,0-.254-.137,12.817,12.817,0,0,0-2.094,1.1.187.187,0,0,0-.036.284q.114.122.232.241A9.547,9.547,0,0,0,70.487,396.782Z" transform="translate(-64.939 -378.539)"/></svg>