<svg xmlns="http://www.w3.org/2000/svg" width="166.41" height="64.758" viewBox="0 0 166.41 64.758"><defs><style>.a{fill:#fff;}.b{fill:#55fffc;}.c{fill:none;stroke:#00fbff;stroke-miterlimit:10;stroke-width:2px;}</style></defs><path class="a" d="M6.29,15.39h3.82l10,22.33,10-22.33H33.9v27H30.33V22.26l-9,20.14h-2.5l-9-20.18V42.41H6.29Z"/><path class="a" d="M39.3,15.12a2.38,2.38,0,1,1,.7,1.723A2.38,2.38,0,0,1,39.3,15.12ZM39.89,21h3.55V42.41H39.89Z"/><path class="a" d="M65.14,30.3c0-4.37-2.38-6.6-6-6.6S53,26,53,30.58V42.41H49.49V21H53v3a7.9,7.9,0,0,1,6.87-3.43c5,0,8.74,3,8.74,9.17V42.41H65.14Z"/><path class="a" d="M83.32,20.66a9.33,9.33,0,0,1,7.92,4.18V13.52h3.59V42.41H91.25v-4a8.78,8.78,0,0,1-8,4.37c-5.74,0-10.15-4.49-10.15-11.12S77.55,20.66,83.32,20.66ZM84,23.75c-3.9,0-7.22,2.85-7.22,7.88s3.32,8,7.22,8,7.26-2.93,7.26-8S87.89,23.75,84,23.75Z"/><path class="a" d="M101.63,23.94H98.85V21h2.77V15.63h3.55V21h5.58v2.93h-5.58V36.55c0,2.11.78,2.85,3,2.85h2.62v3h-3.2c-3.79,0-5.93-1.56-5.93-5.86Z"/><path class="a" d="M114.46,15.12a2.38,2.38,0,1,1,.7,1.723,2.38,2.38,0,0,1-.7-1.723ZM115,21h3.55V42.41H115Z"/><path class="a" d="M140.3,30.3c0-4.37-2.38-6.6-6-6.6s-6.1,2.3-6.1,6.88V42.41h-3.55V21h3.55v3a7.9,7.9,0,0,1,6.87-3.43c5,0,8.74,3,8.74,9.17V42.41H140.3Z"/><path class="a" d="M149.63,13.52h3.55v17L161.41,21h5L156.3,31.67,166.41,42.4h-4.84L153.18,33v9.45h-3.55Z"/><path class="b" d="M5.76,55.45H6.82l1.43,5.23L9.8,55.45h1.06l1.51,5.24,1.41-5.24h1l-1.94,6.23H11.79l-1.5-4.95-1.5,4.95H7.72Z"/><path class="b" d="M18.52,61.78a3.22,3.22,0,0,1,0-6.44,2.86,2.86,0,0,1,3,3,5.43,5.43,0,0,1,0,.63h-5a2,2,0,0,0,2,2,1.71,1.71,0,0,0,1.75-1.15h1.11A2.8,2.8,0,0,1,18.52,61.78Zm-2-3.67h3.93a1.83,1.83,0,0,0-2-1.89,1.93,1.93,0,0,0-1.94,1.89Z"/><path class="b" d="M34.91,58.16c0-1.27-.68-1.92-1.71-1.92s-1.76.67-1.76,2v3.43h-1V58.16c0-1.27-.68-1.92-1.71-1.92s-1.76.67-1.76,2v3.43h-1V55.45h1v.9a2.25,2.25,0,0,1,2-1,2.34,2.34,0,0,1,2.29,1.39,2.3,2.3,0,0,1,2.21-1.39A2.41,2.41,0,0,1,35.93,58v3.67h-1Z"/><path class="b" d="M40.2,55.35a2.58,2.58,0,0,1,2.32,1.24V55.45h1v6.23h-1V60.52a2.6,2.6,0,0,1-2.33,1.26,3.218,3.218,0,0,1,.01-6.43Zm.2.9A2.12,2.12,0,1,0,42.531,58.3,2.1,2.1,0,0,0,40.4,56.25Z"/><path class="b" d="M45.32,53.27h1v4.95l2.4-2.76H50.2l-2.93,3.1,2.94,3.13H48.8l-2.44-2.75v2.75h-1Z"/><path class="b" d="M53.88,61.78a3.22,3.22,0,0,1,0-6.44,2.86,2.86,0,0,1,3,3,5.441,5.441,0,0,1,0,.63h-5a2,2,0,0,0,2,2,1.71,1.71,0,0,0,1.75-1.15h1.11a2.8,2.8,0,0,1-2.86,1.96Zm-2-3.67H55.8a1.83,1.83,0,0,0-2-1.89,1.93,1.93,0,0,0-1.93,1.89Z"/><path class="b" d="M63.84,55.35a2.57,2.57,0,0,1,2.32,1.24V55.45h1v6.37a2.79,2.79,0,0,1-3,2.93c-1.64,0-2.81-.83-3-2.16h1a1.93,1.93,0,0,0,2,1.26,1.85,1.85,0,0,0,1.93-2V60.51a2.6,2.6,0,0,1-2.32,1.27,3.216,3.216,0,0,1,.07-6.43Zm.2.9A2.12,2.12,0,1,0,66.171,58.3,2.1,2.1,0,0,0,64.04,56.25Z"/><path class="b" d="M70,61.68H69V55.45h1v1a2.1,2.1,0,0,1,2-1.12V56.4h-.27c-1,0-1.74.44-1.74,1.89Z"/><path class="b" d="M75.9,61.78a3.22,3.22,0,0,1,0-6.44,2.86,2.86,0,0,1,3,3,5.441,5.441,0,0,1,0,.63h-5a2,2,0,0,0,2,2,1.71,1.71,0,0,0,1.75-1.15h1.11a2.8,2.8,0,0,1-2.86,1.96Zm-2-3.67h3.93a1.83,1.83,0,0,0-2-1.89,1.93,1.93,0,0,0-1.94,1.89Z"/><path class="b" d="M82.83,55.35a2.58,2.58,0,0,1,2.32,1.24V55.45h1v6.23h-1V60.52a2.6,2.6,0,0,1-2.33,1.26,3.218,3.218,0,0,1,.01-6.43Zm.2.9A2.12,2.12,0,1,0,85.161,58.3,2.1,2.1,0,0,0,83.03,56.25Z"/><path class="b" d="M88.17,56.3h-.81v-.85h.81V53.88h1v1.57H90.8v.85H89.21V60c0,.61.23.83.86.83h.76v.88H89.9c-1.1,0-1.73-.46-1.73-1.71Z"/><path class="b" d="M98.49,55.35a3.216,3.216,0,0,1,0,6.43,2.7,2.7,0,0,1-2.33-1.25v4.1h-1V55.45h1V56.6a2.63,2.63,0,0,1,2.33-1.25Zm-.22.9a2.32,2.32,0,1,0,2.12,2.3,2.11,2.11,0,0,0-2.12-2.3Z"/><path class="b" d="M103.85,61.68h-1V55.45h1v1a2.1,2.1,0,0,1,2-1.12V56.4h-.27c-1,0-1.74.44-1.74,1.89Z"/><path class="b" d="M109.77,61.78a3.22,3.22,0,1,1,3.2-3.23,3.09,3.09,0,0,1-3.2,3.23Zm0-.91a2.12,2.12,0,0,0,2.14-2.32,2.09,2.09,0,0,0-2.1-2.31,2.33,2.33,0,0,0,0,4.63Z"/><path class="b" d="M116.92,55.35a2.72,2.72,0,0,1,2.31,1.22v-3.3h1v8.41h-1V60.51a2.56,2.56,0,0,1-2.32,1.27,3.216,3.216,0,0,1,.01-6.43Zm.19.9a2.12,2.12,0,1,0,2.131,2.052A2.1,2.1,0,0,0,117.11,56.25Z"/><path class="b" d="M127.55,61.68h-1v-.92a2.29,2.29,0,0,1-2,1A2.43,2.43,0,0,1,122,59.1V55.45h1V59a1.67,1.67,0,0,0,1.74,1.91c1.07,0,1.78-.66,1.78-2V55.45h1Z"/><path class="b" d="M132,55.35a2.71,2.71,0,0,1,2.88,2.1h-1.11A1.7,1.7,0,0,0,132,56.22c-1.14,0-2,.81-2,2.33s.84,2.35,2,2.35a1.67,1.67,0,0,0,1.76-1.23h1.11a2.77,2.77,0,0,1-2.87,2.1,3.22,3.22,0,0,1,0-6.43Z"/><path class="b" d="M136.44,56.3h-.81v-.85h.81V53.88h1v1.57h1.63v.85h-1.62V60c0,.61.23.83.86.83h.76v.88h-.93c-1.1,0-1.73-.46-1.73-1.71Z"/><path class="b" d="M142.55,61.78c-1.46,0-2.48-.8-2.55-1.93h1.07c.06.6.59,1.06,1.47,1.06s1.27-.41,1.27-.92c0-1.39-3.68-.58-3.68-2.9,0-1,.9-1.74,2.29-1.74a2.09,2.09,0,0,1,2.35,2h-1a1.2,1.2,0,0,0-1.35-1.08c-.76,0-1.22.36-1.22.86,0,1.48,3.61.67,3.66,2.9C144.83,61,143.93,61.78,142.55,61.78Z"/><path class="b" d="M146.62,61.75a.71.71,0,1,1,.68-.71.69.69,0,0,1-.68.71Z"/><line class="c" y2="21" transform="translate(1 21)"/><circle class="c" cx="7" cy="7" r="7" transform="translate(110 8)"/><line class="c" x1="3" y1="3" transform="translate(105 2)"/><line class="c" y1="3" transform="translate(118)"/><line class="c" y1="2.5" x2="2.5" transform="translate(126 2.5)"/></svg>