<svg xmlns="http://www.w3.org/2000/svg" xmlns:xlink="http://www.w3.org/1999/xlink" width="297" height="259" viewBox="0 0 297 259"><defs><style>.a{fill:none;}.b{opacity:0.487;clip-path:url(#a);}.c{fill:#fff;}</style><clipPath id="a"><rect class="a" width="297" height="259"/></clipPath></defs><g class="b"><g transform="translate(-758 -185)"><circle class="c" cx="5" cy="5" r="5" transform="translate(761 188)"/></g><g transform="translate(-731 -185)"><circle class="c" cx="5" cy="5" r="5" transform="translate(761 188)"/></g><g transform="translate(-704 -185)"><circle class="c" cx="5" cy="5" r="5" transform="translate(761 188)"/></g><g transform="translate(-677 -185)"><circle class="c" cx="5" cy="5" r="5" transform="translate(761 188)"/></g><g transform="translate(-650 -185)"><circle class="c" cx="5" cy="5" r="5" transform="translate(761 188)"/></g><g transform="translate(-623 -185)"><circle class="c" cx="5" cy="5" r="5" transform="translate(761 188)"/></g><g transform="translate(-596 -185)"><circle class="c" cx="5" cy="5" r="5" transform="translate(761 188)"/></g><g transform="translate(-569 -185)"><circle class="c" cx="5" cy="5" r="5" transform="translate(761 188)"/></g><g transform="translate(-542 -185)"><circle class="c" cx="5" cy="5" r="5" transform="translate(761 188)"/></g><g transform="translate(-515 -185)"><circle class="c" cx="5" cy="5" r="5" transform="translate(761 188)"/></g><g transform="translate(-488 -185)"><circle class="c" cx="5" cy="5" r="5" transform="translate(761 188)"/></g><g transform="translate(-758 -156)"><circle class="c" cx="5" cy="5" r="5" transform="translate(761 188)"/></g><g transform="translate(-731 -156)"><circle class="c" cx="5" cy="5" r="5" transform="translate(761 188)"/></g><g transform="translate(-704 -156)"><circle class="c" cx="5" cy="5" r="5" transform="translate(761 188)"/></g><g transform="translate(-677 -156)"><circle class="c" cx="5" cy="5" r="5" transform="translate(761 188)"/></g><g transform="translate(-650 -156)"><circle class="c" cx="5" cy="5" r="5" transform="translate(761 188)"/></g><g transform="translate(-623 -156)"><circle class="c" cx="5" cy="5" r="5" transform="translate(761 188)"/></g><g transform="translate(-596 -156)"><circle class="c" cx="5" cy="5" r="5" transform="translate(761 188)"/></g><g transform="translate(-569 -156)"><circle class="c" cx="5" cy="5" r="5" transform="translate(761 188)"/></g><g transform="translate(-542 -156)"><circle class="c" cx="5" cy="5" r="5" transform="translate(761 188)"/></g><g transform="translate(-515 -156)"><circle class="c" cx="5" cy="5" r="5" transform="translate(761 188)"/></g><g transform="translate(-488 -156)"><circle class="c" cx="5" cy="5" r="5" transform="translate(761 188)"/></g><g transform="translate(-758 -127)"><circle class="c" cx="5" cy="5" r="5" transform="translate(761 188)"/></g><g transform="translate(-731 -127)"><circle class="c" cx="5" cy="5" r="5" transform="translate(761 188)"/></g><g transform="translate(-704 -127)"><circle class="c" cx="5" cy="5" r="5" transform="translate(761 188)"/></g><g transform="translate(-677 -127)"><circle class="c" cx="5" cy="5" r="5" transform="translate(761 188)"/></g><g transform="translate(-650 -127)"><circle class="c" cx="5" cy="5" r="5" transform="translate(761 188)"/></g><g transform="translate(-623 -127)"><circle class="c" cx="5" cy="5" r="5" transform="translate(761 188)"/></g><g transform="translate(-596 -127)"><circle class="c" cx="5" cy="5" r="5" transform="translate(761 188)"/></g><g transform="translate(-569 -127)"><circle class="c" cx="5" cy="5" r="5" transform="translate(761 188)"/></g><g transform="translate(-542 -127)"><circle class="c" cx="5" cy="5" r="5" transform="translate(761 188)"/></g><g transform="translate(-515 -127)"><circle class="c" cx="5" cy="5" r="5" transform="translate(761 188)"/></g><g transform="translate(-488 -127)"><circle class="c" cx="5" cy="5" r="5" transform="translate(761 188)"/></g><g transform="translate(-758 -98)"><circle class="c" cx="5" cy="5" r="5" transform="translate(761 188)"/></g><g transform="translate(-731 -98)"><circle class="c" cx="5" cy="5" r="5" transform="translate(761 188)"/></g><g transform="translate(-704 -98)"><circle class="c" cx="5" cy="5" r="5" transform="translate(761 188)"/></g><g transform="translate(-677 -98)"><circle class="c" cx="5" cy="5" r="5" transform="translate(761 188)"/></g><g transform="translate(-650 -98)"><circle class="c" cx="5" cy="5" r="5" transform="translate(761 188)"/></g><g transform="translate(-623 -98)"><circle class="c" cx="5" cy="5" r="5" transform="translate(761 188)"/></g><g transform="translate(-596 -98)"><circle class="c" cx="5" cy="5" r="5" transform="translate(761 188)"/></g><g transform="translate(-569 -98)"><circle class="c" cx="5" cy="5" r="5" transform="translate(761 188)"/></g><g transform="translate(-542 -98)"><circle class="c" cx="5" cy="5" r="5" transform="translate(761 188)"/></g><g transform="translate(-515 -98)"><circle class="c" cx="5" cy="5" r="5" transform="translate(761 188)"/></g><g transform="translate(-488 -98)"><circle class="c" cx="5" cy="5" r="5" transform="translate(761 188)"/></g><g transform="translate(-758 -69)"><circle class="c" cx="5" cy="5" r="5" transform="translate(761 188)"/></g><g transform="translate(-731 -69)"><circle class="c" cx="5" cy="5" r="5" transform="translate(761 188)"/></g><g transform="translate(-704 -69)"><circle class="c" cx="5" cy="5" r="5" transform="translate(761 188)"/></g><g transform="translate(-677 -69)"><circle class="c" cx="5" cy="5" r="5" transform="translate(761 188)"/></g><g transform="translate(-650 -69)"><circle class="c" cx="5" cy="5" r="5" transform="translate(761 188)"/></g><g transform="translate(-623 -69)"><circle class="c" cx="5" cy="5" r="5" transform="translate(761 188)"/></g><g transform="translate(-596 -69)"><circle class="c" cx="5" cy="5" r="5" transform="translate(761 188)"/></g><g transform="translate(-569 -69)"><circle class="c" cx="5" cy="5" r="5" transform="translate(761 188)"/></g><g transform="translate(-542 -69)"><circle class="c" cx="5" cy="5" r="5" transform="translate(761 188)"/></g><g transform="translate(-515 -69)"><circle class="c" cx="5" cy="5" r="5" transform="translate(761 188)"/></g><g transform="translate(-488 -69)"><circle class="c" cx="5" cy="5" r="5" transform="translate(761 188)"/></g><g transform="translate(-758 -40)"><circle class="c" cx="5" cy="5" r="5" transform="translate(761 188)"/></g><g transform="translate(-731 -40)"><circle class="c" cx="5" cy="5" r="5" transform="translate(761 188)"/></g><g transform="translate(-704 -40)"><circle class="c" cx="5" cy="5" r="5" transform="translate(761 188)"/></g><g transform="translate(-677 -40)"><circle class="c" cx="5" cy="5" r="5" transform="translate(761 188)"/></g><g transform="translate(-650 -40)"><circle class="c" cx="5" cy="5" r="5" transform="translate(761 188)"/></g><g transform="translate(-623 -40)"><circle class="c" cx="5" cy="5" r="5" transform="translate(761 188)"/></g><g transform="translate(-596 -40)"><circle class="c" cx="5" cy="5" r="5" transform="translate(761 188)"/></g><g transform="translate(-569 -40)"><circle class="c" cx="5" cy="5" r="5" transform="translate(761 188)"/></g><g transform="translate(-542 -40)"><circle class="c" cx="5" cy="5" r="5" transform="translate(761 188)"/></g><g transform="translate(-515 -40)"><circle class="c" cx="5" cy="5" r="5" transform="translate(761 188)"/></g><g transform="translate(-488 -40)"><circle class="c" cx="5" cy="5" r="5" transform="translate(761 188)"/></g><g transform="translate(-758 -11)"><circle class="c" cx="5" cy="5" r="5" transform="translate(761 188)"/></g><g transform="translate(-731 -11)"><circle class="c" cx="5" cy="5" r="5" transform="translate(761 188)"/></g><g transform="translate(-704 -11)"><circle class="c" cx="5" cy="5" r="5" transform="translate(761 188)"/></g><g transform="translate(-677 -11)"><circle class="c" cx="5" cy="5" r="5" transform="translate(761 188)"/></g><g transform="translate(-650 -11)"><circle class="c" cx="5" cy="5" r="5" transform="translate(761 188)"/></g><g transform="translate(-623 -11)"><circle class="c" cx="5" cy="5" r="5" transform="translate(761 188)"/></g><g transform="translate(-596 -11)"><circle class="c" cx="5" cy="5" r="5" transform="translate(761 188)"/></g><g transform="translate(-569 -11)"><circle class="c" cx="5" cy="5" r="5" transform="translate(761 188)"/></g><g transform="translate(-542 -11)"><circle class="c" cx="5" cy="5" r="5" transform="translate(761 188)"/></g><g transform="translate(-515 -11)"><circle class="c" cx="5" cy="5" r="5" transform="translate(761 188)"/></g><g transform="translate(-488 -11)"><circle class="c" cx="5" cy="5" r="5" transform="translate(761 188)"/></g><g transform="translate(-758 18)"><circle class="c" cx="5" cy="5" r="5" transform="translate(761 188)"/></g><g transform="translate(-731 18)"><circle class="c" cx="5" cy="5" r="5" transform="translate(761 188)"/></g><g transform="translate(-704 18)"><circle class="c" cx="5" cy="5" r="5" transform="translate(761 188)"/></g><g transform="translate(-677 18)"><circle class="c" cx="5" cy="5" r="5" transform="translate(761 188)"/></g><g transform="translate(-650 18)"><circle class="c" cx="5" cy="5" r="5" transform="translate(761 188)"/></g><g transform="translate(-623 18)"><circle class="c" cx="5" cy="5" r="5" transform="translate(761 188)"/></g><g transform="translate(-596 18)"><circle class="c" cx="5" cy="5" r="5" transform="translate(761 188)"/></g><g transform="translate(-569 18)"><circle class="c" cx="5" cy="5" r="5" transform="translate(761 188)"/></g><g transform="translate(-542 18)"><circle class="c" cx="5" cy="5" r="5" transform="translate(761 188)"/></g><g transform="translate(-515 18)"><circle class="c" cx="5" cy="5" r="5" transform="translate(761 188)"/></g><g transform="translate(-488 18)"><circle class="c" cx="5" cy="5" r="5" transform="translate(761 188)"/></g><g transform="translate(-758 47)"><circle class="c" cx="5" cy="5" r="5" transform="translate(761 188)"/></g><g transform="translate(-731 47)"><circle class="c" cx="5" cy="5" r="5" transform="translate(761 188)"/></g><g transform="translate(-704 47)"><circle class="c" cx="5" cy="5" r="5" transform="translate(761 188)"/></g><g transform="translate(-677 47)"><circle class="c" cx="5" cy="5" r="5" transform="translate(761 188)"/></g><g transform="translate(-650 47)"><circle class="c" cx="5" cy="5" r="5" transform="translate(761 188)"/></g><g transform="translate(-623 47)"><circle class="c" cx="5" cy="5" r="5" transform="translate(761 188)"/></g><g transform="translate(-596 47)"><circle class="c" cx="5" cy="5" r="5" transform="translate(761 188)"/></g><g transform="translate(-569 47)"><circle class="c" cx="5" cy="5" r="5" transform="translate(761 188)"/></g><g transform="translate(-542 47)"><circle class="c" cx="5" cy="5" r="5" transform="translate(761 188)"/></g><g transform="translate(-515 47)"><circle class="c" cx="5" cy="5" r="5" transform="translate(761 188)"/></g><g transform="translate(-488 47)"><circle class="c" cx="5" cy="5" r="5" transform="translate(761 188)"/></g></g></svg>