<svg xmlns="http://www.w3.org/2000/svg" width="30.667" height="30.667" viewBox="0 0 30.667 30.667"><defs><style>.a{fill:#fff;}</style></defs><path class="a" d="M30.667,14.939A15.082,15.082,0,0,1,8.335,28.02L0,30.667,2.717,22.65A14.787,14.787,0,0,1,.558,14.938a15.055,15.055,0,0,1,30.109,0ZM15.61,2.382A12.622,12.622,0,0,0,2.954,14.942,12.424,12.424,0,0,0,5.365,22.3l-1.58,4.663,4.862-1.545A12.672,12.672,0,0,0,28.268,14.939,12.621,12.621,0,0,0,15.61,2.382Zm7.6,16c-.094-.151-.34-.243-.708-.427s-2.184-1.069-2.521-1.189-.586-.185-.832.182-.951,1.191-1.168,1.437-.43.276-.8.095a10.174,10.174,0,0,1-2.969-1.817,11.016,11.016,0,0,1-2.052-2.536c-.217-.366-.022-.564.161-.746.165-.165.369-.428.554-.643a2.441,2.441,0,0,0,.369-.609.682.682,0,0,0-.031-.643c-.092-.184-.829-1.984-1.138-2.717s-.614-.611-.83-.611-.461-.03-.707-.03a1.351,1.351,0,0,0-.983.456,4.1,4.1,0,0,0-1.291,3.054,7.079,7.079,0,0,0,1.506,3.787c.186.243,2.554,4.062,6.305,5.528s3.753.976,4.429.914A3.723,3.723,0,0,0,23,20.126,3.043,3.043,0,0,0,23.214,18.38Z"/></svg>